<svg xmlns="http://www.w3.org/2000/svg" width="23.703" height="16" viewBox="0 0 23.703 16">
  <path id="Icon_zocial-email" data-name="Icon zocial-email" d="M.072,18.651V5.485q0-.023.069-.434l7.749,6.629L.163,19.108a1.937,1.937,0,0,1-.091-.457ZM1.1,4.137a.985.985,0,0,1,.389-.069H22.358a1.294,1.294,0,0,1,.411.069L15,10.788l-1.029.823-2.034,1.669L9.9,11.611l-1.029-.823ZM1.123,20l7.794-7.474,3.017,2.446,3.017-2.446L22.746,20a1.1,1.1,0,0,1-.389.069H1.489A1.035,1.035,0,0,1,1.123,20Zm14.857-8.32,7.726-6.629a1.364,1.364,0,0,1,.069.434V18.651a1.752,1.752,0,0,1-.069.457Z" transform="translate(-0.072 -4.068)" fill="#906649"/>
</svg>
