<?xml version="1.0" encoding="UTF-8" standalone="no"?>
<svg
   xmlns:dc="http://purl.org/dc/elements/1.1/"
   xmlns:cc="http://creativecommons.org/ns#"
   xmlns:rdf="http://www.w3.org/1999/02/22-rdf-syntax-ns#"
   xmlns:svg="http://www.w3.org/2000/svg"
   xmlns="http://www.w3.org/2000/svg"
   viewBox="0 0 1365.3333 2033.3333"
   height="100"
   width="60"
   xml:space="preserve"
   id="svg2"
   version="1.1"><metadata
     id="metadata8"><rdf:RDF><cc:Work
         rdf:about=""><dc:format>image/svg+xml</dc:format><dc:type
           rdf:resource="http://purl.org/dc/dcmitype/StillImage" /></cc:Work></rdf:RDF></metadata><defs
     id="defs6" /><g
     transform="matrix(1.3333333,0,0,-1.3333333,0,2033.3333)"
     id="g10"><g
       id="g12"><g
         transform="matrix(1,0,0,-0.999502,0,1525)"
         id="g14"><path
           id="path16"
           style="fill:#ffffff;fill-opacity:0;fill-rule:nonzero;stroke:#285c4d;stroke-width:10.23999977;stroke-linecap:butt;stroke-linejoin:miter;stroke-miterlimit:4;stroke-dasharray:none;stroke-opacity:1"
           d="m 56.32,5.12 h 911.36 c 28.277,0 51.199,22.921 51.199,51.201 V 1146.88 c 0,28.276 -22.922,51.201 -51.199,51.201 H 56.32 c -28.277,0 -51.199,-22.925 -51.199,-51.201 V 56.321 C 5.121,28.041 28.043,5.12 56.32,5.12 Z" /></g><path
         id="path18"
         style="fill:#285c4d;fill-opacity:1;fill-rule:nonzero;stroke:none"
         d="m 279.59,569.371 -15.891,49.758 h 9.141 l 8.332,-28.664 2.949,-10.711 c 0.125,0.492 1.051,3.891 2.781,10.172 l 8.211,29.203 h 8.946 l 7.699,-28.828 2.512,-9.516 2.996,9.563 9.093,28.804 h 8.528 l -16.598,-49.757 h -8.844 l -8.093,29.789 -2.02,8.461 -10.652,-38.274 z" /><path
         id="path20"
         style="fill:#285c4d;fill-opacity:1;fill-rule:nonzero;stroke:none"
         d="m 353.484,569.371 -15.914,49.758 h 9.137 l 8.336,-28.664 2.949,-10.711 c 0.121,0.492 1.047,3.891 2.778,10.172 l 8.187,29.203 h 8.945 l 7.727,-28.828 2.484,-9.516 3,9.563 9.114,28.804 h 8.531 l -16.621,-49.757 h -8.825 l -8.113,29.789 -2.023,8.461 -10.676,-38.274 z" /><path
         id="path22"
         style="fill:#285c4d;fill-opacity:1;fill-rule:nonzero;stroke:none"
         d="m 427.328,569.371 -15.89,49.758 h 9.14 l 8.332,-28.664 2.949,-10.711 c 0.125,0.492 1.051,3.891 2.782,10.172 l 8.211,29.203 h 8.921 l 7.723,-28.828 2.512,-9.516 2.996,9.563 9.094,28.804 h 8.527 l -16.598,-49.757 h -8.843 l -8.094,29.789 -2.024,8.461 -10.648,-38.274 z" /><path
         id="path24"
         style="fill:#285c4d;fill-opacity:1;fill-rule:nonzero;stroke:none"
         d="m 484.477,569.371 v 9.563 h 9.921 v -9.563 z" /><path
         id="path26"
         style="fill:#285c4d;fill-opacity:1;fill-rule:nonzero;stroke:none"
         d="m 509.359,569.371 v 43.219 h -7.578 v 6.539 h 7.578 v 5.273 c 0,3.352 0.344,5.789 0.93,7.407 0.852,2.179 2.363,3.937 4.484,5.296 2.145,1.383 5.118,2.04 8.942,2.04 2.437,0 5.168,-0.282 8.14,-0.821 l -1.293,-7.312 c -1.851,0.304 -3.558,0.468 -5.164,0.468 -2.632,0 -4.558,-0.515 -5.628,-1.617 -1.098,-1.125 -1.637,-3.14 -1.637,-6.117 v -4.57 h 10.09 v -6.539 h -10.09 v -43.219 h -8.774 z" /><path
         id="path28"
         style="fill:#285c4d;fill-opacity:1;fill-rule:nonzero;stroke:none"
         d="m 532.66,584.395 8.774,1.101 c 0.488,-3.351 1.777,-5.859 3.996,-7.687 2.242,-1.688 5.312,-2.602 9.261,-2.602 3.997,0 6.969,0.82 8.871,2.344 1.95,1.64 2.899,3.469 2.899,5.578 0,1.922 -0.828,3.422 -2.559,4.523 -1.218,0.727 -4.14,1.688 -8.871,2.836 -6.312,1.547 -10.699,2.93 -13.183,4.032 -2.536,1.195 -4.434,2.742 -5.68,4.71 -1.316,2.063 -1.949,4.266 -1.949,6.68 0,2.25 0.511,4.313 1.609,6.141 1.024,1.922 2.461,3.469 4.242,4.758 1.41,0.914 3.192,1.734 5.555,2.461 2.363,0.632 4.852,0.96 7.555,0.96 3.996,0 7.531,-0.539 10.601,-1.687 3.047,-1.148 5.289,-2.648 6.75,-4.57 1.438,-1.922 2.438,-4.524 3,-7.735 l -8.578,-1.148 c -0.391,2.601 -1.512,4.617 -3.316,6.094 -1.852,1.429 -4.485,2.156 -7.797,2.156 -3.949,0 -6.778,-0.633 -8.508,-1.922 -1.73,-1.289 -2.535,-2.742 -2.535,-4.477 0,-1.101 0.344,-2.109 1.051,-2.976 0.707,-0.867 1.8,-1.641 3.363,-2.25 0.828,-0.328 3.387,-1.055 7.578,-2.156 6.117,-1.594 10.43,-2.883 12.844,-3.891 2.437,-1.055 4.363,-2.508 5.75,-4.43 1.367,-1.922 2.074,-4.359 2.074,-7.242 0,-2.789 -0.855,-5.391 -2.535,-7.922 -1.684,-2.461 -4.145,-4.406 -7.336,-5.719 -3.219,-1.382 -6.824,-2.062 -10.871,-2.062 -6.653,0 -11.77,1.336 -15.305,4.031 -3.508,2.672 -5.773,6.75 -6.75,12.071 z" /><path
         id="path30"
         style="fill:#285c4d;fill-opacity:1;fill-rule:nonzero;stroke:none"
         d="m 618.859,587.559 8.582,-1.149 c -0.929,-5.672 -3.339,-10.125 -7.144,-13.265 -3.899,-3.258 -8.625,-4.852 -14.207,-4.852 -7.043,0 -12.695,2.25 -16.938,6.633 -4.265,4.476 -6.433,10.851 -6.433,19.125 0,5.39 0.949,10.125 2.754,14.156 1.828,3.984 4.629,7.008 8.406,9.023 3.777,2.063 7.848,3.024 12.285,3.024 5.582,0 10.113,-1.336 13.695,-4.125 3.559,-2.742 5.852,-6.68 6.825,-11.766 l -8.579,-1.101 c -0.781,3.304 -2.242,5.859 -4.289,7.547 -2.023,1.687 -4.484,2.507 -7.41,2.507 -4.386,0 -7.918,-1.5 -10.648,-4.523 -2.754,-3.07 -4.121,-7.922 -4.121,-14.508 0,-6.633 1.316,-11.531 3.972,-14.508 2.633,-3.07 6.094,-4.57 10.36,-4.57 3.41,0 6.261,1.008 8.578,3.023 2.242,1.993 3.73,5.11 4.312,9.329 z" /><path
         id="path32"
         style="fill:#285c4d;fill-opacity:1;fill-rule:nonzero;stroke:none"
         d="m 636.797,569.371 v 9.563 h 9.945 v -9.563 z" /><path
         id="path34"
         style="fill:#285c4d;fill-opacity:1;fill-rule:nonzero;stroke:none"
         d="m 654.855,594.238 c 0,9.258 2.633,16.078 7.973,20.508 4.434,3.656 9.844,5.484 16.231,5.484 7.117,0 12.914,-2.25 17.449,-6.679 4.484,-4.477 6.726,-10.664 6.726,-18.586 0,-6.399 -0.976,-11.438 -2.972,-15.117 -2,-3.68 -4.926,-6.493 -8.727,-8.555 -3.754,-2.016 -7.969,-3.023 -12.476,-3.023 -7.239,0 -13.063,2.25 -17.524,6.679 -4.437,4.5 -6.68,10.899 -6.68,19.289 z m 8.969,0.047 c 0,-6.351 1.465,-11.18 4.364,-14.32 2.874,-3.164 6.531,-4.758 10.894,-4.758 4.363,0 8.02,1.594 10.895,4.805 2.898,3.164 4.363,8.015 4.363,14.554 0,6.188 -1.465,10.852 -4.387,14.016 -2.902,3.164 -6.558,4.758 -10.871,4.758 -4.387,0 -8.02,-1.594 -10.894,-4.711 -2.926,-3.188 -4.364,-7.992 -4.364,-14.344 z" /><path
         id="path36"
         style="fill:#285c4d;fill-opacity:1;fill-rule:nonzero;stroke:none"
         d="m 713.348,569.371 v 49.758 h 7.726 v -7.641 c 2.047,3.563 3.899,5.907 5.582,7.055 1.731,1.148 3.582,1.687 5.606,1.687 2.972,0 5.945,-0.867 9.039,-2.742 l -3.117,-7.687 c -2.098,1.101 -4.192,1.64 -6.336,1.64 -1.879,0 -3.559,-0.539 -5.121,-1.64 -1.485,-1.102 -2.582,-2.649 -3.239,-4.617 -0.953,-2.977 -1.441,-6.235 -1.441,-9.797 v -25.992 h -8.699 z" /><path
         id="path38"
         style="fill:#285c4d;fill-opacity:1;fill-rule:nonzero;stroke:none"
         d="m 744.031,565.293 8.75,-1.148 c 0.364,-2.602 1.317,-4.43 2.926,-5.672 2.168,-1.547 5.141,-2.391 8.871,-2.391 3.996,0 7.141,0.82 9.332,2.391 2.195,1.57 3.68,3.797 4.485,6.586 0.464,1.734 0.632,5.367 0.609,10.898 -3.824,-4.406 -8.629,-6.586 -14.332,-6.586 -7.164,0 -12.672,2.461 -16.57,7.406 -3.899,4.946 -5.848,10.852 -5.848,17.766 0,4.711 0.898,9.117 2.656,13.148 1.828,3.985 4.387,7.102 7.797,9.282 3.387,2.203 7.387,3.257 11.941,3.257 6.118,0 11.137,-2.437 15.086,-7.289 v 6.188 h 7.969 v -42.984 c 0,-7.735 -0.805,-13.219 -2.461,-16.477 -1.582,-3.211 -4.215,-5.766 -7.75,-7.641 -3.558,-1.875 -7.918,-2.789 -13.086,-2.789 -6.14,0 -11.136,1.289 -14.941,3.938 -3.75,2.695 -5.578,6.726 -5.434,12.117 z m 7.164,29.859 c 0,-6.539 1.414,-11.297 4.094,-14.32 2.684,-3.023 6.117,-4.477 10.188,-4.477 4.07,0 7.461,1.454 10.214,4.43 2.727,3.024 4.094,7.688 4.094,14.11 0,6.093 -1.39,10.71 -4.242,13.828 -2.801,3.07 -6.215,4.617 -10.211,4.617 -3.926,0 -7.238,-1.5 -9.992,-4.57 -2.754,-3.094 -4.145,-7.618 -4.145,-13.618 z" /><path
         id="path40"
         style="fill:#285c4d;fill-opacity:1;fill-rule:nonzero;stroke:none"
         d="m 530.344,1436.527 c -157.852,0 -213.614,-235.996 -265.547,-425.797 -18.742,18.258 -76.504,73.641 -76.574,73.571 -11.625,11.062 -24.957,7.5 -33.145,-0.211 -8.191,-7.922 -9.383,-22.57 0,-31.453 0.461,-0.375 78.277,-75.024 105.211,-100.852 7.406,-6.961 18.129,-11.039 28.805,-4.992 11.164,6.516 12.699,18.211 12.965,18.211 92.171,397.297 174.57,426.898 228.043,426.898 44.988,0 96.828,-31.968 96.828,-95.933 67.117,0 109.156,-84.703 55.125,-136.922 44.797,-20.817 64.73,-46.457 64.73,-78.848 0,-32.461 -28.269,-65.578 -69.457,-65.484 -40.871,0 -61.66,25.242 -93.539,25.312 -14.426,0 -23.223,-11.203 -23.223,-22.242 v -80.226 h -60.148 v 79.898 c -0.098,12.539 -9.727,22.383 -21.645,22.383 -0.218,0 -5.164,-0.117 -5.043,-0.258 l -80.546,-9.633 c -9.75,-1.336 -18.692,-11.461 -18.692,-22.008 0,-12.304 10.43,-22.453 24.735,-22.312 1.781,0 4.218,0 3.996,0.211 -0.121,0 51.011,6.281 51.011,6.281 0,0 0,-78.871 0,-79.176 0,-10.078 11.793,-19.828 22.395,-19.851 h 107.016 c 12.476,0 23.25,10.312 23.25,22.476 v 72.285 c 22.398,-13.171 53.519,-18.257 69.531,-18.257 60,0 117.324,45.398 117.054,111.914 -0.242,60.426 -48.207,90.519 -48.207,90.519 28.176,72.188 -17.351,141.844 -76.425,161.227 -21.328,74.465 -87.422,103.269 -138.504,103.269 z" /><path
         id="path42"
         style="fill:#285c4d;fill-opacity:1;fill-rule:nonzero;stroke:none"
         d="m 462.934,804.781 c 0,-18.679 21.691,-29.906 57.32,-46.219 28.297,-12.75 44.574,-26.226 44.574,-37.007 0,-17.535 -19.617,-23.746 -37.969,-23.746 -28.418,0 -45.207,10.879 -54.468,35.3 l -0.782,2.11 h -2.289 c -5.047,0 -9.019,-0.211 -11.234,-2.907 -1.953,-2.437 -1.414,-5.695 -0.539,-8.882 -0.07,0.07 6.238,-25.082 6.238,-25.082 1.66,-6.141 3.949,-7.125 14.09,-9.024 4.434,-0.75 27.391,-4.594 46.84,-4.594 54.273,0 78.547,21.215 78.547,42.239 0,15.304 -15.766,29.976 -49.789,46.265 l -15.5,7.172 c -23.274,10.664 -37.289,17.039 -37.289,28.266 0,10.875 14.527,18.492 35.414,18.492 27.125,0 34.41,-14.602 37.726,-27.328 l 0.61,-2.414 h 2.605 c 6.02,0 9.848,0.469 12.066,2.859 1.34,1.313 1.801,3.141 1.559,5.321 l -2.168,21.726 c -0.586,6.938 -6.117,7.969 -13.769,9.422 -9.118,1.594 -20.036,3.469 -36.536,3.469 -47.109,0 -75.257,-13.266 -75.257,-35.438 z" /><path
         id="path44"
         style="fill:#285c4d;fill-opacity:1;fill-rule:nonzero;stroke:none"
         d="m 619.227,760.812 c 0,-37.757 34.093,-76.058 99.289,-76.058 32.898,0 51.422,7.219 65.214,14.273 l 3.754,1.946 -6.093,6.425 0.343,-0.328 c -1.414,1.992 -2.609,2.321 -4.777,2.321 l -3.191,-1.032 c -4.95,-2.226 -20.036,-8.957 -47.43,-8.957 -33.703,0 -70.039,21.168 -70.039,67.762 0,44.32 39.383,60.024 72.988,60.024 24.227,0 37.094,-8.321 39.434,-25.5 l 0.343,-2.836 h 3.02 c 2.852,0 10.527,0 10.527,5.507 v 25.875 c 0,6.305 -7.578,7.266 -10.793,7.688 l -3.144,0.398 c -7.75,1.032 -15.184,1.922 -34.852,1.922 -66.386,-0.023 -114.593,-33.398 -114.593,-79.43 z" /><path
         id="path46"
         style="fill:#285c4d;fill-opacity:1;fill-rule:nonzero;stroke:none"
         d="m 373.395,838.391 -58.711,-0.493 -39.188,0.657 -5.949,0.14 c -3.485,0 -5.969,-2.437 -5.969,-5.906 0,-1.617 0,-6.656 6.457,-6.656 23.664,0 24.52,-1.899 24.785,-10.594 l 0.172,-5.508 0.367,-23.25 v -50.109 c 0,-8.32 -0.293,-21.516 -0.855,-32.184 -0.145,-3.047 -0.34,-5.953 -21.25,-5.953 -5.824,0 -9.359,-1.125 -9.359,-6.68 0,-1.64 0,-5.929 5.652,-5.929 l 1.344,0.047 c 2.461,0.117 9.113,0.398 41.793,0.398 34.804,0 41.847,-0.328 44.164,-0.398 l 1.289,-0.047 c 4.558,0 8.531,0.492 8.531,5.929 0,6.211 -5.336,6.68 -14.16,6.68 -21.008,0 -21.129,2.906 -21.278,5.906 -0.511,9.801 -0.925,23.02 -0.925,32.231 0,0 0,13.383 0,18.023 4.73,0 17.547,0 17.547,0 26.957,0 30.003,-0.679 33.851,-20.672 1.051,-4.335 4.656,-4.875 7.68,-4.875 6.336,0 7.043,3.329 7.043,4.829 l -0.512,7.429 c -0.441,4.289 -0.902,9.656 -0.902,16.922 v 30.68 c 0,4.64 -5.727,4.64 -8.824,4.64 -5.094,0 -6.286,-3.14 -9.528,-17.648 -1.437,-5.531 -12.551,-8.719 -30.488,-8.719 0,0 -11.262,0 -15.867,0 0,5.649 0,45.094 0,45.094 0,12.281 2.269,12.352 5.07,12.469 10.285,0.422 35.289,1.289 42.773,1.289 7.114,0 13.672,-1.571 17.911,-4.266 13.308,-7.969 20.156,-13.383 24.3,-16.617 4.02,-3.141 6.286,-4.969 9.625,-4.969 1.875,0 7.578,0 7.578,4.711 0,1.149 -0.488,2.227 -2.339,6.117 -2.168,4.618 -5.871,12.258 -10.477,23.93 -1.293,3.68 -5.754,3.68 -13.992,3.68 z" /><g
         transform="matrix(1,0,0,0.999502,0,1525)"
         id="g48"><path
           id="path50"
           style="fill:#285c4d;fill-opacity:1;fill-rule:nonzero;stroke:#285c4d;stroke-width:3.36811495;stroke-linecap:butt;stroke-linejoin:miter;stroke-miterlimit:4;stroke-dasharray:none;stroke-opacity:1"
           d="m 723.027,-111.305 c 8.676,0 16.125,-3.104 22.356,-9.306 6.234,-6.202 9.347,-13.682 9.347,-22.441 0,-8.727 -3.101,-16.207 -9.304,-22.441 -6.203,-6.229 -13.668,-9.344 -22.399,-9.344 -8.754,0 -16.25,3.099 -22.48,9.305 -6.231,6.203 -9.348,13.695 -9.348,22.48 0,8.731 3.117,16.196 9.348,22.398 6.23,6.202 13.726,9.317 22.48,9.349 z m -0.082,-58.311 c 7.27,0 13.5,2.595 18.692,7.789 5.191,5.19 7.804,11.451 7.832,18.775 0,7.297 -2.598,13.53 -7.789,18.693 -5.192,5.167 -11.438,7.762 -18.735,7.789 -7.297,0 -13.531,-2.583 -18.695,-7.746 -5.164,-5.166 -7.758,-11.408 -7.789,-18.736 0,-7.296 2.582,-13.542 7.75,-18.736 5.164,-5.19 11.406,-7.8 18.734,-7.828 z m 14.821,8.966 h -6.739 c -4.238,7.718 -7.004,12.068 -8.293,13.053 -1.293,0.981 -2.918,1.473 -4.882,1.473 h -3.286 v -14.526 h -5.515 v 34.146 h 11.832 c 3.535,0 6.258,-0.254 8.168,-0.759 1.906,-0.504 3.449,-1.571 4.629,-3.2 1.179,-1.626 1.769,-3.381 1.769,-5.261 0,-2.333 -0.844,-4.451 -2.527,-6.358 -1.684,-1.908 -4.098,-2.975 -7.242,-3.201 v -0.168 c 2.05,-0.477 4.703,-3.326 7.957,-8.548 z m -23.2,19.24 h 6.735 c 3.09,0 5.238,0.449 6.441,1.348 1.207,0.899 1.813,2.177 1.813,3.83 0,1.602 -0.575,2.849 -1.727,3.748 -1.152,0.899 -3.465,1.348 -6.945,1.348 h -6.317 z" /></g><g
         transform="matrix(1,0,0,0.999502,0,1525)"
         id="g52"><path
           id="path54"
           style="fill:#285c4d;fill-opacity:1;fill-rule:nonzero;stroke:#285c4d;stroke-width:3.36811495;stroke-linecap:butt;stroke-linejoin:miter;stroke-miterlimit:4;stroke-dasharray:none;stroke-opacity:1"
           d="m 253.344,-1066.887 h -33.473 v -19.111 h 29.008 v -7.328 h -29.008 v -27.955 h -8.168 v 61.722 h 41.641 z" /></g><g
         transform="matrix(1,0,0,0.999502,0,1525)"
         id="g56"><path
           id="path58"
           style="fill:#285c4d;fill-opacity:1;fill-rule:nonzero;stroke:#285c4d;stroke-width:3.36811495;stroke-linecap:butt;stroke-linejoin:miter;stroke-miterlimit:4;stroke-dasharray:none;stroke-opacity:1"
           d="m 304.117,-1077.662 c -0.336,3.928 -1.754,6.875 -4.254,8.841 -2.496,1.965 -6.074,2.962 -10.734,2.989 -4.211,0 -7.633,-0.785 -10.274,-2.356 -2.636,-1.575 -3.957,-3.862 -3.957,-6.863 0,-2.669 1.012,-4.647 3.032,-5.937 2.019,-1.293 5.922,-2.599 11.703,-3.916 5.109,-1.121 9.277,-2.274 12.504,-3.455 3.23,-1.176 5.996,-3.001 8.297,-5.471 2.3,-2.47 3.453,-5.811 3.453,-10.021 0,-5.303 -2.106,-9.711 -6.317,-13.217 -4.211,-3.51 -9.726,-5.264 -16.547,-5.264 -8.671,0 -15.156,1.938 -19.449,5.811 -4.297,3.873 -6.582,8.895 -6.863,15.07 l 7.746,0.676 c 0.363,-4.94 2.273,-8.535 5.727,-10.779 3.453,-2.247 7.621,-3.384 12.504,-3.412 4.574,0 8.265,0.942 11.07,2.822 2.808,1.88 4.226,4.436 4.254,7.664 0,3.365 -1.473,5.823 -4.422,7.367 -2.945,1.544 -7.887,3.06 -14.82,4.545 -6.93,1.489 -11.942,3.608 -15.028,6.359 -3.09,2.751 -4.617,6.288 -4.59,10.611 0,4.94 1.938,9.02 5.809,12.248 3.875,3.228 9.152,4.842 15.832,4.842 6.848,0 12.348,-1.598 16.504,-4.799 4.152,-3.201 6.371,-7.773 6.652,-13.726 z" /></g><g
         transform="matrix(1,0,0,0.999502,0,1525)"
         id="g60"><path
           id="path62"
           style="fill:#285c4d;fill-opacity:1;fill-rule:nonzero;stroke:#285c4d;stroke-width:3.36811495;stroke-linecap:butt;stroke-linejoin:miter;stroke-miterlimit:4;stroke-dasharray:none;stroke-opacity:1"
           d="m 380.617,-1101.701 c -1.797,-6.933 -4.926,-12.1 -9.39,-15.496 -4.461,-3.396 -9.836,-5.108 -16.125,-5.135 -10.106,0 -17.457,3.157 -22.063,9.473 -4.601,6.316 -6.918,13.937 -6.945,22.859 0,9.853 2.707,17.56 8.125,23.113 5.418,5.558 12.406,8.352 20.969,8.379 6.003,0 11.14,-1.528 15.406,-4.588 4.269,-3.06 7.258,-7.535 8.968,-13.429 l -8,-1.895 c -1.347,4.295 -3.394,7.523 -6.144,9.681 -2.75,2.161 -6.191,3.243 -10.316,3.243 -6.735,0 -11.844,-2.204 -15.325,-6.608 -3.48,-4.409 -5.222,-10.345 -5.222,-17.81 0,-8.59 1.828,-14.976 5.476,-19.158 3.649,-4.182 8.434,-6.273 14.356,-6.273 4.828,0 8.742,1.306 11.746,3.916 3.004,2.611 5.121,6.539 6.355,11.788 z" /></g><g
         transform="matrix(1,0,0,0.999502,0,1525)"
         id="g64"><path
           id="path66"
           style="fill:#285c4d;fill-opacity:1;fill-rule:nonzero;stroke:#285c4d;stroke-width:1.68405497;stroke-linecap:butt;stroke-linejoin:miter;stroke-miterlimit:4;stroke-dasharray:none;stroke-opacity:1"
           d="m 409.984,-1059.172 c 4.336,0 8.063,-1.552 11.176,-4.655 3.117,-3.099 4.676,-6.839 4.676,-11.22 0,-4.362 -1.551,-8.102 -4.652,-11.217 -3.102,-3.118 -6.836,-4.674 -11.2,-4.674 -4.379,0 -8.125,1.552 -11.242,4.651 -3.113,3.103 -4.672,6.847 -4.672,11.24 0,4.365 1.559,8.098 4.672,11.201 3.117,3.099 6.863,4.658 11.242,4.674 z m -0.043,-29.155 c 3.637,0 6.75,1.297 9.348,3.892 2.594,2.595 3.899,5.726 3.914,9.388 0,3.65 -1.297,6.765 -3.894,9.348 -2.598,2.584 -5.719,3.881 -9.368,3.893 -3.648,0 -6.765,-1.29 -9.347,-3.873 -2.582,-2.58 -3.879,-5.702 -3.895,-9.368 0,-3.647 1.293,-6.769 3.875,-9.364 2.582,-2.599 5.703,-3.905 9.367,-3.916 z m 7.411,4.482 h -3.368 c -2.121,3.858 -3.504,6.035 -4.148,6.527 -0.645,0.489 -1.461,0.735 -2.441,0.735 h -1.641 v -7.262 h -2.758 v 17.071 h 5.914 c 1.77,0 3.129,-0.125 4.082,-0.379 0.957,-0.25 1.727,-0.785 2.317,-1.598 0.589,-0.813 0.886,-1.692 0.886,-2.63 0,-1.165 -0.422,-2.228 -1.265,-3.182 -0.84,-0.953 -2.047,-1.485 -3.621,-1.598 v -0.086 c 1.027,-0.238 2.351,-1.661 3.98,-4.272 z m -11.598,9.619 h 3.367 c 1.543,0 2.617,0.226 3.219,0.676 0.605,0.449 0.906,1.086 0.906,1.915 0,0.801 -0.289,1.422 -0.863,1.872 -0.574,0.449 -1.735,0.676 -3.473,0.676 h -3.156 z" /></g><g
         transform="matrix(1,0,0,0.999502,0,1525)"
         id="g68"><path
           id="path70"
           style="fill:#285c4d;fill-opacity:1;fill-rule:nonzero;stroke:#285c4d;stroke-width:3.36811495;stroke-linecap:butt;stroke-linejoin:miter;stroke-miterlimit:4;stroke-dasharray:none;stroke-opacity:1"
           d="m 523.301,-1101.701 c -1.797,-6.933 -4.926,-12.1 -9.387,-15.496 -4.465,-3.396 -9.84,-5.108 -16.125,-5.135 -10.105,0 -17.457,3.157 -22.062,9.473 -4.602,6.316 -6.918,13.937 -6.946,22.859 0,9.853 2.707,17.56 8.125,23.113 5.418,5.558 12.406,8.352 20.965,8.379 6.008,0 11.145,-1.528 15.41,-4.588 4.266,-3.06 7.254,-7.535 8.969,-13.429 l -8,-1.895 c -1.348,4.295 -3.395,7.523 -6.148,9.681 -2.75,2.161 -6.188,3.243 -10.313,3.243 -6.738,0 -11.844,-2.204 -15.324,-6.608 -3.481,-4.409 -5.223,-10.345 -5.223,-17.81 0,-8.59 1.824,-14.976 5.473,-19.158 3.648,-4.182 8.433,-6.273 14.359,-6.273 4.824,0 8.742,1.306 11.746,3.916 3,2.611 5.121,6.539 6.356,11.788 z" /></g><g
         transform="matrix(1,0,0,0.999502,0,1525)"
         id="g72"><path
           id="path74"
           style="fill:#285c4d;fill-opacity:1;fill-rule:nonzero;stroke:#285c4d;stroke-width:3.36811495;stroke-linecap:butt;stroke-linejoin:miter;stroke-miterlimit:4;stroke-dasharray:none;stroke-opacity:1"
           d="m 562.371,-1121.281 h -7.578 v 48.289 c -3.789,-3.591 -8.855,-6.636 -15.199,-9.133 v 7.324 c 8.73,4.182 14.679,9.36 17.851,15.535 h 4.926 z" /></g><g
         transform="matrix(1,0,0,0.999502,0,1525)"
         id="g76"><path
           id="path78"
           style="fill:#285c4d;fill-opacity:1;fill-rule:nonzero;stroke:#285c4d;stroke-width:3.36811495;stroke-linecap:butt;stroke-linejoin:miter;stroke-miterlimit:4;stroke-dasharray:none;stroke-opacity:1"
           d="m 614.031,-1087.893 c 7.719,-2.47 11.578,-7.735 11.578,-15.79 0,-5.303 -1.894,-9.739 -5.683,-13.303 -3.789,-3.564 -8.66,-5.346 -14.61,-5.346 -6.007,0 -10.89,1.797 -14.652,5.389 -3.762,3.592 -5.656,8.098 -5.684,13.514 0,3.901 1.051,7.313 3.157,10.232 2.105,2.92 4.968,4.686 8.59,5.304 v 0.168 c -6.176,1.907 -9.262,6.077 -9.262,12.506 0,4.545 1.629,8.332 4.883,11.365 3.257,3.033 7.523,4.561 12.8,4.588 5.36,0 9.684,-1.571 12.965,-4.713 3.285,-3.146 4.942,-6.949 4.969,-11.412 0,-6.062 -3.016,-10.173 -9.051,-12.334 z m -8.715,2.989 c 2.832,0 5.207,0.899 7.114,2.693 1.91,1.798 2.879,4.072 2.906,6.82 0,2.779 -0.969,5.124 -2.906,7.031 -1.938,1.911 -4.336,2.864 -7.2,2.864 -2.89,0 -5.277,-0.941 -7.156,-2.821 -1.883,-1.88 -2.82,-4.096 -2.82,-6.652 0,-3.06 0.969,-5.472 2.902,-7.242 1.938,-1.766 4.324,-2.665 7.16,-2.693 z m 0,-31.199 c 3.563,0 6.539,1.153 8.926,3.455 2.383,2.302 3.578,5.288 3.578,8.965 0,3.678 -1.222,6.695 -3.664,9.052 -2.441,2.36 -5.445,3.537 -9.008,3.537 -3.679,0 -6.668,-1.208 -8.968,-3.619 -2.301,-2.416 -3.453,-5.347 -3.453,-8.802 0,-3.564 1.179,-6.554 3.535,-8.965 2.359,-2.415 5.375,-3.623 9.054,-3.623 z" /></g><g
         transform="matrix(1,0,0,0.999502,0,1525)"
         id="g80"><path
           id="path82"
           style="fill:#285c4d;fill-opacity:1;fill-rule:nonzero;stroke:#285c4d;stroke-width:3.36811495;stroke-linecap:butt;stroke-linejoin:miter;stroke-miterlimit:4;stroke-dasharray:none;stroke-opacity:1"
           d="m 669.227,-1092.232 c -1.489,-2.411 -3.524,-4.361 -6.106,-5.85 -2.582,-1.489 -5.402,-2.232 -8.465,-2.232 -5.078,0 -9.386,1.853 -12.922,5.558 -3.539,3.705 -5.32,8.574 -5.347,14.609 0,6.12 1.808,11.13 5.429,15.031 3.622,3.9 8.282,5.85 13.977,5.85 5.727,0 10.684,-2.231 14.863,-6.695 4.184,-4.459 6.274,-12.178 6.274,-23.152 0,-11.146 -1.91,-19.467 -5.727,-24.969 -3.816,-5.499 -9.277,-8.25 -16.375,-8.25 -4.633,0 -8.508,1.262 -11.621,3.79 -3.117,2.525 -5.012,6.383 -5.684,11.577 l 7.243,0.59 c 1.148,-6.484 4.558,-9.728 10.23,-9.728 4.656,0 8.223,2.122 10.692,6.359 2.472,4.236 3.707,10.075 3.707,17.512 z m -12.758,-1.473 c 3.703,0 6.636,1.305 8.801,3.916 2.16,2.611 3.253,5.937 3.281,9.978 0,4.072 -1.11,7.468 -3.324,10.188 -2.219,2.724 -5.082,4.1 -8.59,4.127 -3.508,0 -6.469,-1.446 -8.883,-4.338 -2.414,-2.888 -3.621,-6.413 -3.621,-10.567 0,-3.901 1.179,-7.086 3.535,-9.556 2.359,-2.47 5.293,-3.717 8.801,-3.748 z" /></g><g
         transform="matrix(1,0,0,0.999502,0,1525)"
         id="g84"><path
           id="path86"
           style="fill:#285c4d;fill-opacity:1;fill-rule:nonzero;stroke:#285c4d;stroke-width:3.36811495;stroke-linecap:butt;stroke-linejoin:miter;stroke-miterlimit:4;stroke-dasharray:none;stroke-opacity:1"
           d="m 707.957,-1059.266 c 13.418,0 20.125,-10.525 20.125,-31.574 0,-10.638 -1.727,-18.541 -5.176,-23.703 -3.453,-5.167 -8.437,-7.762 -14.949,-7.789 -13.387,0 -20.082,10.497 -20.082,31.492 0,10.638 1.727,18.552 5.18,23.746 3.453,5.19 8.422,7.801 14.902,7.828 z m 0,-56.837 c 4.07,0 7.145,1.966 9.223,5.894 2.074,3.931 3.113,10.388 3.113,19.369 0,6.229 -0.449,11.126 -1.348,14.695 -0.894,3.564 -2.273,6.229 -4.125,7.996 -1.851,1.77 -4.168,2.653 -6.945,2.653 -4.07,0 -7.129,-2.008 -9.18,-6.018 -2.047,-4.014 -3.074,-10.459 -3.074,-19.326 0,-6.148 0.465,-11.017 1.391,-14.609 0.926,-3.592 2.3,-6.261 4.125,-8 1.824,-1.739 4.097,-2.623 6.82,-2.654 z" /></g><g
         transform="matrix(1,0,0,0.999502,0,1525)"
         id="g88"><path
           id="path90"
           style="fill:#285c4d;fill-opacity:1;fill-rule:nonzero;stroke:#285c4d;stroke-width:3.36811495;stroke-linecap:butt;stroke-linejoin:miter;stroke-miterlimit:4;stroke-dasharray:none;stroke-opacity:1"
           d="m 746.609,-1089.453 c 3.481,5.448 8.434,8.168 14.86,8.168 5.054,0 9.347,-1.864 12.883,-5.596 3.539,-3.736 5.304,-8.508 5.304,-14.316 0,-5.866 -1.754,-10.849 -5.261,-14.945 -3.508,-4.1 -8.196,-6.163 -14.063,-6.19 -5.922,0 -10.961,2.188 -15.113,6.569 -4.157,4.377 -6.246,12.166 -6.274,23.363 0,11.006 1.879,19.272 5.641,24.798 3.762,5.53 9.234,8.309 16.422,8.336 4.629,0 8.547,-1.29 11.746,-3.873 3.199,-2.579 5.148,-6.413 5.851,-11.494 l -7.578,-0.672 c -1.375,6.538 -4.855,9.809 -10.441,9.809 -3.875,0 -7.199,-1.922 -9.981,-5.768 -2.777,-3.846 -4.167,-9.907 -4.167,-18.189 z m 13.555,-26.65 c 3.481,0 6.301,1.403 8.461,4.213 2.164,2.806 3.242,6.203 3.242,10.189 0,3.982 -1.078,7.281 -3.242,9.892 -2.16,2.61 -5.066,3.916 -8.715,3.916 -3.34,0 -6.215,-1.22 -8.629,-3.662 -2.414,-2.443 -3.621,-5.687 -3.621,-9.728 0,-4.096 1.18,-7.59 3.535,-10.482 2.36,-2.892 5.348,-4.338 8.969,-4.338 z" /></g><g
         transform="matrix(1,0,0,0.999502,0,1525)"
         id="g92"><path
           id="path94"
           style="fill:#285c4d;fill-opacity:1;fill-rule:nonzero;stroke:#285c4d;stroke-width:3.36811495;stroke-linecap:butt;stroke-linejoin:miter;stroke-miterlimit:4;stroke-dasharray:none;stroke-opacity:1"
           d="m 830.727,-1066.254 c -6.063,-6.652 -11.313,-14.874 -15.747,-24.672 -4.433,-9.794 -7.046,-19.912 -7.832,-30.355 h -7.746 c 0.196,8.395 2.262,17.598 6.188,27.619 3.93,10.021 9.055,18.666 15.367,25.935 h -30.184 v 7.324 h 39.954 z" /></g><g
         transform="matrix(1,0,0,0.999502,0,1525)"
         id="g96"><path
           id="path98"
           style="fill:#285c4d;fill-opacity:1;fill-rule:nonzero;stroke:#285c4d;stroke-width:3.36811495;stroke-linecap:butt;stroke-linejoin:miter;stroke-miterlimit:4;stroke-dasharray:none;stroke-opacity:1"
           d="m 315.934,-1317.766 h -20.418 v -54.394 h -8.211 v 54.394 h -20.25 v 7.328 h 48.879 z" /></g><g
         transform="matrix(1,0,0,0.999502,0,1525)"
         id="g100"><path
           id="path102"
           style="fill:#285c4d;fill-opacity:1;fill-rule:nonzero;stroke:#285c4d;stroke-width:3.36811495;stroke-linecap:butt;stroke-linejoin:miter;stroke-miterlimit:4;stroke-dasharray:none;stroke-opacity:1"
           d="m 363.465,-1372.16 h -7.617 v 28.209 c 0,3.647 -0.789,6.382 -2.36,8.208 -1.57,1.825 -3.914,2.739 -7.031,2.739 -3.086,0 -5.836,-1.067 -8.25,-3.201 -2.414,-2.134 -3.637,-5.979 -3.664,-11.537 v -24.418 h -7.578 v 61.722 h 7.578 v -22.148 c 3.594,4.073 8.082,6.105 13.473,6.105 2.89,0 5.656,-0.59 8.293,-1.767 2.64,-1.18 4.492,-2.989 5.558,-5.432 1.067,-2.443 1.598,-5.839 1.598,-10.189 z" /></g><g
         transform="matrix(1,0,0,0.999502,0,1525)"
         id="g104"><path
           id="path106"
           style="fill:#285c4d;fill-opacity:1;fill-rule:nonzero;stroke:#285c4d;stroke-width:3.36811495;stroke-linecap:butt;stroke-linejoin:miter;stroke-miterlimit:4;stroke-dasharray:none;stroke-opacity:1"
           d="m 417.102,-1351.74 h -33.469 c 0.308,-4.94 1.711,-8.715 4.211,-11.326 2.496,-2.61 5.64,-3.916 9.429,-3.916 2.891,0 5.321,0.758 7.286,2.275 1.964,1.516 3.464,3.83 4.503,6.945 l 7.79,-0.969 c -1.266,-4.659 -3.579,-8.235 -6.95,-10.736 -3.367,-2.498 -7.578,-3.744 -12.629,-3.744 -6.707,0 -11.941,2.048 -15.703,6.143 -3.761,4.1 -5.656,9.728 -5.683,16.884 0,7.046 1.824,12.756 5.472,17.137 3.649,4.377 8.813,6.566 15.493,6.566 3.257,0 6.386,-0.715 9.39,-2.146 3.004,-1.43 5.57,-3.861 7.703,-7.285 2.133,-3.423 3.188,-8.699 3.157,-15.828 z m -7.786,6.23 c -0.308,4.549 -1.714,7.816 -4.211,9.81 -2.5,1.993 -5.25,3.005 -8.253,3.032 -3.563,0 -6.497,-1.196 -8.797,-3.58 -2.305,-2.384 -3.637,-5.471 -4,-9.262 z" /></g><g
         transform="matrix(1,0,0,0.999502,0,1525)"
         id="g108"><path
           id="path110"
           style="fill:#285c4d;fill-opacity:1;fill-rule:nonzero;stroke:#285c4d;stroke-width:3.36811495;stroke-linecap:butt;stroke-linejoin:miter;stroke-miterlimit:4;stroke-dasharray:none;stroke-opacity:1"
           d="m 517.473,-1372.16 h -7.578 v 28.209 c 0,2.076 -0.141,3.846 -0.422,5.304 -0.282,1.457 -0.996,2.763 -2.145,3.916 -1.152,1.149 -2.976,1.727 -5.473,1.727 -2.976,0 -5.546,-1.039 -7.707,-3.119 -2.16,-2.075 -3.242,-5.444 -3.242,-10.102 v -25.935 h -7.578 v 29.05 c 0,3.873 -0.672,6.526 -2.019,7.957 -1.348,1.43 -3.286,2.149 -5.809,2.149 -3.258,0 -5.926,-1.125 -8,-3.369 -2.078,-2.247 -3.129,-6.44 -3.16,-12.588 v -23.199 h -7.578 v 44.671 h 6.82 v -6.234 h 0.168 c 3.031,4.831 7.48,7.242 13.348,7.242 3.285,0 5.98,-0.645 8.082,-1.935 2.105,-1.293 3.652,-3.255 4.632,-5.893 3.313,5.217 7.903,7.828 13.766,7.828 4.633,0 8.098,-1.247 10.402,-3.744 2.301,-2.501 3.465,-6.245 3.493,-11.244 z" /></g><g
         transform="matrix(1,0,0,0.999502,0,1525)"
         id="g112"><path
           id="path114"
           style="fill:#285c4d;fill-opacity:1;fill-rule:nonzero;stroke:#285c4d;stroke-width:3.36811495;stroke-linecap:butt;stroke-linejoin:miter;stroke-miterlimit:4;stroke-dasharray:none;stroke-opacity:1"
           d="m 570.859,-1372.16 h -7.957 c -0.73,1.403 -1.25,3.244 -1.558,5.514 -5.082,-4.377 -10.567,-6.565 -16.461,-6.565 -4.719,0 -8.438,1.176 -11.16,3.537 -2.723,2.356 -4.082,5.471 -4.082,9.344 0,3.705 1.304,6.75 3.914,9.137 2.613,2.384 7.172,3.987 13.683,4.8 l 7.074,1.051 c 2.637,0.422 4.813,0.942 6.524,1.559 0,2.271 -0.07,3.873 -0.207,4.8 -0.141,0.926 -0.551,1.907 -1.223,2.946 -0.672,1.04 -1.781,1.853 -3.324,2.443 -1.547,0.59 -3.582,0.899 -6.105,0.926 -3.258,0 -5.825,-0.605 -7.707,-1.813 -1.879,-1.204 -3.184,-3.451 -3.915,-6.734 l -7.41,0.969 c 0.813,4.573 2.907,8.012 6.274,10.314 3.367,2.302 8,3.451 13.894,3.451 5.36,0 9.289,-0.786 11.789,-2.357 2.496,-1.571 4.039,-3.494 4.629,-5.768 0.59,-2.275 0.883,-5.163 0.883,-8.672 v -10.189 c 0,-6.202 0.113,-10.357 0.34,-12.463 0.223,-2.103 0.926,-4.182 2.105,-6.23 z m -10.023,19.662 v 2.736 c -3.957,-1.321 -8.797,-2.357 -14.524,-3.115 -5.726,-0.758 -8.589,-3.185 -8.589,-7.285 0,-2.048 0.773,-3.732 2.316,-5.053 1.543,-1.317 3.762,-1.989 6.652,-2.021 3.735,0 7.016,1.11 9.852,3.326 2.836,2.22 4.266,6.023 4.293,11.412 z" /></g><g
         transform="matrix(1,0,0,0.999502,0,1525)"
         id="g116"><path
           id="path118"
           style="fill:#285c4d;fill-opacity:1;fill-rule:nonzero;stroke:#285c4d;stroke-width:3.36811495;stroke-linecap:butt;stroke-linejoin:miter;stroke-miterlimit:4;stroke-dasharray:none;stroke-opacity:1"
           d="m 607.527,-1328.881 -2.609,-6.988 c -1.879,1.095 -3.719,1.642 -5.516,1.642 -2.836,0 -4.98,-1.262 -6.441,-3.787 -1.461,-2.529 -2.188,-6.093 -2.188,-10.697 v -23.449 h -7.578 v 44.671 h 6.903 v -6.738 h 0.168 c 2.414,5.167 5.574,7.746 9.472,7.746 2.582,0 5.18,-0.797 7.789,-2.4 z" /></g><g
         transform="matrix(1,0,0,0.999502,0,1525)"
         id="g120"><path
           id="path122"
           style="fill:#285c4d;fill-opacity:1;fill-rule:nonzero;stroke:#285c4d;stroke-width:3.36811495;stroke-linecap:butt;stroke-linejoin:miter;stroke-miterlimit:4;stroke-dasharray:none;stroke-opacity:1"
           d="m 652.535,-1372.16 h -9.305 l -14.863,22.863 -5.347,-5.096 v -17.767 h -7.579 v 61.722 h 7.579 v -35.154 l 17.937,18.103 h 9.852 l -17.094,-16.548 z" /></g><g
         transform="matrix(1,0,0,0.999502,0,1525)"
         id="g124"><path
           id="path126"
           style="fill:#285c4d;fill-opacity:1;fill-rule:nonzero;stroke:#285c4d;stroke-width:3.36811495;stroke-linecap:butt;stroke-linejoin:miter;stroke-miterlimit:4;stroke-dasharray:none;stroke-opacity:1"
           d="m 707.52,-1326.481 c 6.035,0 11.031,-1.962 14.988,-5.894 3.957,-3.927 5.949,-9.512 5.976,-16.754 0,-8.786 -2.144,-14.988 -6.441,-18.611 -4.293,-3.619 -9.137,-5.444 -14.523,-5.471 -5.641,0 -10.54,1.864 -14.696,5.596 -4.152,3.736 -6.23,9.657 -6.23,17.767 0,7.859 2.008,13.714 6.019,17.559 4.016,3.846 8.985,5.781 14.907,5.808 z m 0,-40.501 c 4.32,0 7.605,1.599 9.851,4.8 2.246,3.2 3.367,7.41 3.367,12.631 0,5.585 -1.261,9.794 -3.789,12.631 -2.527,2.834 -5.668,4.252 -9.429,4.252 -3.848,0 -7.004,-1.434 -9.473,-4.295 -2.469,-2.865 -3.707,-7.156 -3.707,-12.885 0,-5.667 1.25,-9.935 3.75,-12.796 2.496,-2.864 5.64,-4.31 9.43,-4.338 z" /></g><g
         transform="matrix(1,0,0,0.999502,0,1525)"
         id="g128"><path
           id="path130"
           style="fill:#285c4d;fill-opacity:1;fill-rule:nonzero;stroke:#285c4d;stroke-width:3.36811495;stroke-linecap:butt;stroke-linejoin:miter;stroke-miterlimit:4;stroke-dasharray:none;stroke-opacity:1"
           d="m 761.703,-1310.145 -1.137,-6.652 c -1.515,0.282 -3.004,0.423 -4.461,0.423 -1.824,0 -3.312,-0.38 -4.464,-1.138 -1.149,-0.758 -1.739,-2.681 -1.77,-5.768 v -4.209 h 8.633 v -5.855 h -8.633 v -38.816 h -7.578 v 38.816 h -6.734 v 5.855 h 6.734 v 4.842 c 0,2.243 0.211,4.279 0.633,6.104 0.422,1.822 1.531,3.467 3.328,4.925 1.793,1.458 4.586,2.204 8.375,2.231 2.246,0 4.605,-0.254 7.074,-0.758 z" /></g><g
         transform="matrix(1,0,0,0.999502,0,1525)"
         id="g132"><path
           id="path134"
           style="fill:#285c4d;fill-opacity:1;fill-rule:nonzero;stroke:#285c4d;stroke-width:3.36811495;stroke-linecap:butt;stroke-linejoin:miter;stroke-miterlimit:4;stroke-dasharray:none;stroke-opacity:1"
           d="m 133.656,-1426.16 -2.609,-6.987 c -1.883,1.094 -3.719,1.641 -5.516,1.641 -2.836,0 -4.984,-1.262 -6.441,-3.791 -1.461,-2.525 -2.192,-6.089 -2.192,-10.693 v -23.449 h -7.578 v 44.667 h 6.907 v -6.734 h 0.168 c 2.414,5.163 5.57,7.746 9.472,7.746 2.582,0 5.18,-0.801 7.789,-2.4 z" /></g><g
         transform="matrix(1,0,0,0.999502,0,1525)"
         id="g136"><path
           id="path138"
           style="fill:#285c4d;fill-opacity:1;fill-rule:nonzero;stroke:#285c4d;stroke-width:3.36811495;stroke-linecap:butt;stroke-linejoin:miter;stroke-miterlimit:4;stroke-dasharray:none;stroke-opacity:1"
           d="M 180.473,-1449.023 H 147 c 0.309,-4.94 1.715,-8.711 4.211,-11.322 2.5,-2.61 5.641,-3.916 9.434,-3.916 2.89,0 5.316,0.759 7.281,2.271 1.965,1.516 3.465,3.834 4.504,6.949 l 7.789,-0.969 c -1.262,-4.659 -3.578,-8.239 -6.946,-10.736 -3.367,-2.498 -7.578,-3.748 -12.628,-3.748 -6.711,0 -11.946,2.052 -15.707,6.147 -3.758,4.1 -5.657,9.728 -5.684,16.884 0,7.046 1.824,12.756 5.473,17.133 3.652,4.381 8.816,6.57 15.496,6.57 3.254,0 6.382,-0.715 9.386,-2.146 3.004,-1.434 5.575,-3.861 7.707,-7.284 2.133,-3.424 3.184,-8.7 3.157,-15.833 z m -7.789,6.234 c -0.309,4.545 -1.711,7.816 -4.211,9.81 -2.496,1.993 -5.246,3.001 -8.25,3.028 -3.567,0 -6.5,-1.192 -8.801,-3.576 -2.301,-2.387 -3.633,-5.475 -4,-9.262 z" /></g><g
         transform="matrix(1,0,0,0.999502,0,1525)"
         id="g140"><path
           id="path142"
           style="fill:#285c4d;fill-opacity:1;fill-rule:nonzero;stroke:#285c4d;stroke-width:3.36811495;stroke-linecap:butt;stroke-linejoin:miter;stroke-miterlimit:4;stroke-dasharray:none;stroke-opacity:1"
           d="m 217.902,-1437.275 c -0.34,2.443 -1.32,4.268 -2.949,5.472 -1.629,1.208 -3.914,1.825 -6.863,1.852 -2.891,0 -5.219,-0.488 -6.988,-1.473 -1.77,-0.981 -2.664,-2.411 -2.696,-4.291 0,-1.771 0.703,-3.033 2.106,-3.791 1.406,-0.758 4.211,-1.685 8.422,-2.779 4.714,-1.207 8.238,-2.274 10.566,-3.201 2.328,-0.926 4.156,-2.216 5.473,-3.873 1.32,-1.653 1.98,-3.986 1.98,-6.988 0,-3.986 -1.629,-7.339 -4.883,-10.063 -3.258,-2.72 -7.609,-4.084 -13.054,-4.084 -5.668,0 -10.09,1.196 -13.262,3.58 -3.172,2.388 -5.137,5.991 -5.895,10.822 l 7.539,1.137 c 0.391,-3.119 1.543,-5.448 3.45,-6.992 1.91,-1.544 4.605,-2.314 8.086,-2.314 3.312,0 5.851,0.688 7.621,2.064 1.765,1.376 2.652,3.072 2.652,5.092 0,1.349 -0.41,2.427 -1.223,3.244 -0.812,0.813 -1.824,1.415 -3.031,1.81 -1.207,0.39 -3.957,1.121 -8.25,2.188 -6.344,1.517 -10.527,3.353 -12.547,5.515 -2.023,2.161 -3.047,4.744 -3.074,7.746 0,3.736 1.488,6.808 4.461,9.223 2.977,2.411 6.977,3.619 12,3.619 5.332,0 9.473,-1.04 12.422,-3.115 2.945,-2.079 4.726,-5.206 5.344,-9.387 z" /></g><g
         transform="matrix(1,0,0,0.999502,0,1525)"
         id="g144"><path
           id="path146"
           style="fill:#285c4d;fill-opacity:1;fill-rule:nonzero;stroke:#285c4d;stroke-width:3.36811495;stroke-linecap:butt;stroke-linejoin:miter;stroke-miterlimit:4;stroke-dasharray:none;stroke-opacity:1"
           d="m 246.613,-1430.537 c 2.836,4.518 7.086,6.777 12.758,6.777 5.867,0 10.496,-2.118 13.895,-6.359 3.394,-4.236 5.093,-9.778 5.093,-16.629 0,-7.269 -1.882,-13.038 -5.644,-17.302 -3.758,-4.267 -8.375,-6.413 -13.848,-6.444 -4.801,0 -8.648,1.911 -11.539,5.725 h -0.211 v -21.847 h -7.578 v 61.844 h 6.906 v -5.765 z m 11.746,-33.724 c 3.539,0 6.457,1.458 8.758,4.378 2.301,2.919 3.465,7.296 3.496,13.135 0,5.475 -1.109,9.685 -3.328,12.631 -2.219,2.947 -5.078,4.42 -8.59,4.42 -3.59,0 -6.539,-1.641 -8.84,-4.924 -2.3,-3.287 -3.464,-7.539 -3.496,-12.756 0,-5.53 1.11,-9.728 3.329,-12.589 2.218,-2.864 5.109,-4.295 8.671,-4.295 z" /></g><g
         transform="matrix(1,0,0,0.999502,0,1525)"
         id="g148"><path
           id="path150"
           style="fill:#285c4d;fill-opacity:1;fill-rule:nonzero;stroke:#285c4d;stroke-width:3.36811495;stroke-linecap:butt;stroke-linejoin:miter;stroke-miterlimit:4;stroke-dasharray:none;stroke-opacity:1"
           d="m 308.965,-1423.76 c 6.035,0 11.031,-1.966 14.988,-5.894 3.957,-3.931 5.953,-9.516 5.981,-16.758 0,-8.786 -2.149,-14.988 -6.442,-18.607 -4.297,-3.623 -9.137,-5.444 -14.527,-5.475 -5.641,0 -10.539,1.868 -14.692,5.6 -4.156,3.733 -6.23,9.657 -6.23,17.767 0,7.859 2.004,13.71 6.019,17.556 4.012,3.845 8.981,5.784 14.903,5.811 z m 0,-40.501 c 4.324,0 7.605,1.599 9.851,4.8 2.246,3.2 3.372,7.41 3.372,12.631 0,5.585 -1.266,9.794 -3.79,12.627 -2.527,2.838 -5.671,4.252 -9.433,4.252 -3.844,0 -7,-1.43 -9.473,-4.291 -2.469,-2.864 -3.703,-7.16 -3.703,-12.885 0,-5.667 1.25,-9.935 3.746,-12.799 2.5,-2.861 5.641,-4.307 9.43,-4.335 z" /></g><g
         transform="matrix(1,0,0,0.999502,0,1525)"
         id="g152"><path
           id="path154"
           style="fill:#285c4d;fill-opacity:1;fill-rule:nonzero;stroke:#285c4d;stroke-width:3.36811495;stroke-linecap:butt;stroke-linejoin:miter;stroke-miterlimit:4;stroke-dasharray:none;stroke-opacity:1"
           d="m 378.602,-1469.439 h -7.622 v 27.154 c 0,4.577 -0.812,7.719 -2.441,9.431 -1.629,1.711 -3.914,2.567 -6.863,2.567 -2.246,0 -4.364,-0.547 -6.356,-1.641 -1.992,-1.094 -3.425,-2.638 -4.297,-4.631 -0.867,-1.993 -1.289,-4.815 -1.261,-8.462 v -24.418 h -7.578 v 44.667 h 6.82 v -6.312 h 0.168 c 1.601,2.439 3.566,4.264 5.894,5.472 2.332,1.207 5.051,1.825 8.168,1.852 2.36,0 4.688,-0.422 6.989,-1.262 2.3,-0.844 4.097,-2.107 5.39,-3.791 1.289,-1.685 2.117,-3.479 2.485,-5.39 0.363,-1.907 0.531,-4.49 0.504,-7.746 z" /></g><g
         transform="matrix(1,0,0,0.999502,0,1525)"
         id="g156"><path
           id="path158"
           style="fill:#285c4d;fill-opacity:1;fill-rule:nonzero;stroke:#285c4d;stroke-width:3.36811495;stroke-linecap:butt;stroke-linejoin:miter;stroke-miterlimit:4;stroke-dasharray:none;stroke-opacity:1"
           d="m 418.344,-1437.275 c -0.336,2.443 -1.317,4.268 -2.946,5.472 -1.628,1.208 -3.914,1.825 -6.863,1.852 -2.89,0 -5.219,-0.488 -6.988,-1.473 -1.77,-0.981 -2.668,-2.411 -2.695,-4.291 0,-1.771 0.703,-3.033 2.105,-3.791 1.402,-0.758 4.211,-1.685 8.422,-2.779 4.715,-1.207 8.238,-2.274 10.566,-3.201 2.328,-0.926 4.153,-2.216 5.473,-3.873 1.32,-1.653 1.98,-3.986 1.98,-6.988 0,-3.986 -1.628,-7.339 -4.886,-10.063 -3.254,-2.72 -7.606,-4.084 -13.051,-4.084 -5.668,0 -10.09,1.196 -13.262,3.58 -3.172,2.388 -5.137,5.991 -5.894,10.822 l 7.539,1.137 c 0.39,-3.119 1.543,-5.448 3.449,-6.992 1.91,-1.544 4.605,-2.314 8.086,-2.314 3.312,0 5.851,0.688 7.621,2.064 1.766,1.376 2.652,3.072 2.652,5.092 0,1.349 -0.41,2.427 -1.222,3.244 -0.813,0.813 -1.825,1.415 -3.032,1.81 -1.207,0.39 -3.957,1.121 -8.253,2.188 -6.34,1.517 -10.524,3.353 -12.543,5.515 -2.024,2.161 -3.047,4.744 -3.075,7.746 0,3.736 1.489,6.808 4.461,9.223 2.977,2.411 6.977,3.619 12,3.619 5.332,0 9.473,-1.04 12.422,-3.115 2.945,-2.079 4.727,-5.206 5.344,-9.387 z" /></g><g
         transform="matrix(1,0,0,0.999502,0,1525)"
         id="g160"><path
           id="path162"
           style="fill:#285c4d;fill-opacity:1;fill-rule:nonzero;stroke:#285c4d;stroke-width:3.36811495;stroke-linecap:butt;stroke-linejoin:miter;stroke-miterlimit:4;stroke-dasharray:none;stroke-opacity:1"
           d="m 447.48,-1469.439 h -7.578 v 44.667 h 7.578 z m 0,53.132 h -7.578 v 8.586 h 7.578 z" /></g><g
         transform="matrix(1,0,0,0.999502,0,1525)"
         id="g164"><path
           id="path166"
           style="fill:#285c4d;fill-opacity:1;fill-rule:nonzero;stroke:#285c4d;stroke-width:3.36811495;stroke-linecap:butt;stroke-linejoin:miter;stroke-miterlimit:4;stroke-dasharray:none;stroke-opacity:1"
           d="m 470.215,-1429.779 c 2.805,4.014 6.82,6.019 12.039,6.019 5.754,0 10.359,-2.091 13.812,-6.273 3.45,-4.181 5.176,-9.641 5.176,-16.379 0,-7.773 -1.922,-13.725 -5.765,-17.849 -3.848,-4.127 -8.368,-6.202 -13.559,-6.233 -5.25,0 -9.332,2.22 -12.25,6.652 H 469.5 v -5.597 h -7.074 v 61.718 h 7.578 v -22.058 z m 11.113,-34.482 c 3.508,0 6.402,1.501 8.676,4.503 2.273,3.005 3.422,7.242 3.449,12.717 0,5.249 -1.051,9.403 -3.156,12.459 -2.106,3.06 -5.012,4.604 -8.715,4.631 -3.648,0 -6.582,-1.582 -8.801,-4.756 -2.215,-3.169 -3.34,-7.183 -3.367,-12.041 0,-4.745 0.465,-8.109 1.391,-10.103 0.925,-1.993 2.316,-3.732 4.168,-5.221 1.851,-1.489 3.972,-2.216 6.355,-2.189 z" /></g><g
         transform="matrix(1,0,0,0.999502,0,1525)"
         id="g168"><path
           id="path170"
           style="fill:#285c4d;fill-opacity:1;fill-rule:nonzero;stroke:#285c4d;stroke-width:3.36811495;stroke-linecap:butt;stroke-linejoin:miter;stroke-miterlimit:4;stroke-dasharray:none;stroke-opacity:1"
           d="m 513.746,-1407.721 h 7.578 v -61.718 h -7.578 z" /></g><g
         transform="matrix(1,0,0,0.999502,0,1525)"
         id="g172"><path
           id="path174"
           style="fill:#285c4d;fill-opacity:1;fill-rule:nonzero;stroke:#285c4d;stroke-width:3.36811495;stroke-linecap:butt;stroke-linejoin:miter;stroke-miterlimit:4;stroke-dasharray:none;stroke-opacity:1"
           d="m 575.09,-1449.023 h -33.473 c 0.309,-4.94 1.715,-8.711 4.211,-11.322 2.5,-2.61 5.641,-3.916 9.43,-3.916 2.89,0 5.32,0.759 7.285,2.271 1.965,1.516 3.465,3.834 4.504,6.949 l 7.789,-0.969 c -1.262,-4.659 -3.578,-8.239 -6.945,-10.736 -3.368,-2.498 -7.579,-3.748 -12.633,-3.748 -6.707,0 -11.942,2.052 -15.703,6.147 -3.762,4.1 -5.657,9.728 -5.684,16.884 0,7.046 1.824,12.756 5.473,17.133 3.648,4.381 8.812,6.57 15.496,6.57 3.254,0 6.383,-0.715 9.387,-2.146 3.003,-1.434 5.57,-3.861 7.703,-7.284 2.136,-3.424 3.187,-8.7 3.16,-15.833 z m -7.789,6.234 c -0.309,4.545 -1.711,7.816 -4.211,9.81 -2.496,1.993 -5.25,3.001 -8.25,3.028 -3.567,0 -6.5,-1.192 -8.801,-3.576 -2.301,-2.387 -3.637,-5.475 -4,-9.262 z" /></g><g
         transform="matrix(1,0,0,0.999502,0,1525)"
         id="g176"><path
           id="path178"
           style="fill:#285c4d;fill-opacity:1;fill-rule:nonzero;stroke:#285c4d;stroke-width:3.36811495;stroke-linecap:butt;stroke-linejoin:miter;stroke-miterlimit:4;stroke-dasharray:none;stroke-opacity:1"
           d="m 635.969,-1407.424 -1.137,-6.651 c -1.516,0.281 -3.004,0.418 -4.465,0.418 -1.824,0 -3.312,-0.379 -4.461,-1.134 -1.152,-0.758 -1.742,-2.681 -1.769,-5.768 v -4.213 h 8.633 v -5.851 h -8.633 v -38.816 h -7.578 v 38.816 h -6.735 v 5.851 h 6.735 v 4.842 c 0,2.247 0.211,4.283 0.632,6.105 0.422,1.825 1.528,3.466 3.325,4.928 1.796,1.458 4.589,2.2 8.379,2.231 2.246,0 4.601,-0.254 7.074,-0.758 z" /></g><g
         transform="matrix(1,0,0,0.999502,0,1525)"
         id="g180"><path
           id="path182"
           style="fill:#285c4d;fill-opacity:1;fill-rule:nonzero;stroke:#285c4d;stroke-width:3.36811495;stroke-linecap:butt;stroke-linejoin:miter;stroke-miterlimit:4;stroke-dasharray:none;stroke-opacity:1"
           d="m 660.43,-1423.76 c 6.035,0 11.031,-1.966 14.988,-5.894 3.957,-3.931 5.949,-9.516 5.977,-16.758 0,-8.786 -2.149,-14.988 -6.442,-18.607 -4.293,-3.623 -9.137,-5.444 -14.523,-5.475 -5.645,0 -10.539,1.868 -14.696,5.6 -4.152,3.733 -6.23,9.657 -6.23,17.767 0,7.859 2.008,13.71 6.019,17.556 4.016,3.845 8.985,5.784 14.907,5.811 z m 0,-40.501 c 4.32,0 7.605,1.599 9.851,4.8 2.246,3.2 3.367,7.41 3.367,12.631 0,5.585 -1.261,9.794 -3.789,12.627 -2.527,2.838 -5.668,4.252 -9.429,4.252 -3.848,0 -7.004,-1.43 -9.473,-4.291 -2.473,-2.864 -3.707,-7.16 -3.707,-12.885 0,-5.667 1.25,-9.935 3.746,-12.799 2.5,-2.861 5.645,-4.307 9.434,-4.335 z" /></g><g
         transform="matrix(1,0,0,0.999502,0,1525)"
         id="g184"><path
           id="path186"
           style="fill:#285c4d;fill-opacity:1;fill-rule:nonzero;stroke:#285c4d;stroke-width:3.36811495;stroke-linecap:butt;stroke-linejoin:miter;stroke-miterlimit:4;stroke-dasharray:none;stroke-opacity:1"
           d="m 717.645,-1426.16 -2.61,-6.987 c -1.883,1.094 -3.719,1.641 -5.515,1.641 -2.836,0 -4.985,-1.262 -6.442,-3.791 -1.461,-2.525 -2.191,-6.089 -2.191,-10.693 v -23.449 h -7.578 v 44.667 h 6.906 v -6.734 h 0.168 c 2.414,5.163 5.57,7.746 9.472,7.746 2.583,0 5.18,-0.801 7.79,-2.4 z" /></g><g
         transform="matrix(1,0,0,0.999502,0,1525)"
         id="g188"><path
           id="path190"
           style="fill:#285c4d;fill-opacity:1;fill-rule:nonzero;stroke:#285c4d;stroke-width:3.36811495;stroke-linecap:butt;stroke-linejoin:miter;stroke-miterlimit:4;stroke-dasharray:none;stroke-opacity:1"
           d="m 764.461,-1449.023 h -33.469 c 0.309,-4.94 1.711,-8.711 4.207,-11.322 2.5,-2.61 5.645,-3.916 9.434,-3.916 2.89,0 5.316,0.759 7.281,2.271 1.965,1.516 3.469,3.834 4.504,6.949 l 7.789,-0.969 c -1.262,-4.659 -3.578,-8.239 -6.945,-10.736 -3.367,-2.498 -7.578,-3.748 -12.629,-3.748 -6.711,0 -11.945,2.052 -15.707,6.147 -3.758,4.1 -5.653,9.728 -5.684,16.884 0,7.046 1.824,12.756 5.477,17.133 3.648,4.381 8.812,6.57 15.492,6.57 3.254,0 6.387,-0.715 9.387,-2.146 3.004,-1.434 5.574,-3.861 7.707,-7.284 2.133,-3.424 3.183,-8.7 3.156,-15.833 z m -7.789,6.234 c -0.309,4.545 -1.711,7.816 -4.211,9.81 -2.496,1.993 -5.246,3.001 -8.25,3.028 -3.566,0 -6.5,-1.192 -8.801,-3.576 -2.301,-2.387 -3.633,-5.475 -4,-9.262 z" /></g><g
         transform="matrix(1,0,0,0.999502,0,1525)"
         id="g192"><path
           id="path194"
           style="fill:#285c4d;fill-opacity:1;fill-rule:nonzero;stroke:#285c4d;stroke-width:3.36811495;stroke-linecap:butt;stroke-linejoin:miter;stroke-miterlimit:4;stroke-dasharray:none;stroke-opacity:1"
           d="m 801.891,-1437.275 c -0.34,2.443 -1.321,4.268 -2.95,5.472 -1.629,1.208 -3.914,1.825 -6.863,1.852 -2.89,0 -5.219,-0.488 -6.988,-1.473 -1.766,-0.981 -2.664,-2.411 -2.695,-4.291 0,-1.771 0.703,-3.033 2.105,-3.791 1.406,-0.758 4.211,-1.685 8.422,-2.779 4.715,-1.207 8.238,-2.274 10.566,-3.201 2.332,-0.926 4.157,-2.216 5.473,-3.873 1.32,-1.653 1.98,-3.986 1.98,-6.988 0,-3.986 -1.629,-7.339 -4.882,-10.063 -3.258,-2.72 -7.61,-4.084 -13.051,-4.084 -5.672,0 -10.094,1.196 -13.266,3.58 -3.168,2.388 -5.133,5.991 -5.89,10.822 l 7.535,1.137 c 0.39,-3.119 1.543,-5.448 3.453,-6.992 1.906,-1.544 4.601,-2.314 8.082,-2.314 3.312,0 5.851,0.688 7.621,2.064 1.766,1.376 2.652,3.072 2.652,5.092 0,1.349 -0.406,2.427 -1.222,3.244 -0.813,0.813 -1.825,1.415 -3.032,1.81 -1.207,0.39 -3.957,1.121 -8.25,2.188 -6.343,1.517 -10.527,3.353 -12.546,5.515 -2.02,2.161 -3.047,4.744 -3.075,7.746 0,3.736 1.489,6.808 4.465,9.223 2.973,2.411 6.973,3.619 11.996,3.619 5.332,0 9.473,-1.04 12.422,-3.115 2.945,-2.079 4.731,-5.206 5.348,-9.387 z" /></g><g
         transform="matrix(1,0,0,0.999502,0,1525)"
         id="g196"><path
           id="path198"
           style="fill:#285c4d;fill-opacity:1;fill-rule:nonzero;stroke:#285c4d;stroke-width:3.36811495;stroke-linecap:butt;stroke-linejoin:miter;stroke-miterlimit:4;stroke-dasharray:none;stroke-opacity:1"
           d="m 840.875,-1469.357 c -2.246,-0.449 -4.141,-0.672 -5.684,-0.672 -3.312,0 -5.726,0.574 -7.242,1.727 -1.515,1.149 -2.441,2.638 -2.777,4.46 -0.336,1.825 -0.504,4.322 -0.504,7.495 v 25.724 h -5.516 v 5.851 h 5.516 v 11.115 l 7.578,4.592 v -15.707 h 7.578 v -5.851 h -7.578 v -26.146 c 0,-2.243 0.223,-3.83 0.672,-4.756 0.449,-0.926 1.629,-1.403 3.535,-1.43 1.098,0 2.219,0.109 3.371,0.336 z" /></g><g
         transform="matrix(1,0,0,0.999502,0,1525)"
         id="g200"><path
           id="path202"
           style="fill:#285c4d;fill-opacity:1;fill-rule:nonzero;stroke:#285c4d;stroke-width:3.36811495;stroke-linecap:butt;stroke-linejoin:miter;stroke-miterlimit:4;stroke-dasharray:none;stroke-opacity:1"
           d="m 874.852,-1426.16 -2.61,-6.987 c -1.883,1.094 -3.719,1.641 -5.515,1.641 -2.836,0 -4.985,-1.262 -6.442,-3.791 -1.461,-2.525 -2.191,-6.089 -2.191,-10.693 v -23.449 h -7.578 v 44.667 h 6.906 v -6.734 h 0.168 c 2.414,5.163 5.57,7.746 9.472,7.746 2.583,0 5.18,-0.801 7.79,-2.4 z" /></g><g
         transform="matrix(1,0,0,0.999502,0,1525)"
         id="g204"><path
           id="path206"
           style="fill:#285c4d;fill-opacity:1;fill-rule:nonzero;stroke:#285c4d;stroke-width:3.36811495;stroke-linecap:butt;stroke-linejoin:miter;stroke-miterlimit:4;stroke-dasharray:none;stroke-opacity:1"
           d="m 919.52,-1424.772 -17.094,-45.425 c -0.028,-0.059 -0.055,-0.156 -0.082,-0.297 -1.629,-5.05 -3.524,-9.149 -5.684,-12.291 -2.16,-3.147 -5.262,-4.729 -9.305,-4.757 -1.347,0 -2.988,0.278 -4.925,0.841 l -0.758,7.155 c 1.461,-0.449 2.89,-0.672 4.293,-0.672 2.808,0 4.746,0.77 5.812,2.314 1.067,1.544 2.285,4.338 3.661,8.379 l -16.965,44.753 h 8.168 l 10.523,-29.257 c 0.617,-1.798 1.277,-4.115 1.981,-6.949 h 0.167 c 0.704,3.256 1.598,6.359 2.696,9.306 l 9.808,26.9 z" /></g></g></g></svg>